<svg width="30" height="30" viewBox="0 0 30 30" fill="none" xmlns="http://www.w3.org/2000/svg">
<path d="M15 28.2422C11.4564 28.2422 8.129 26.8661 5.63098 24.3675C3.13336 21.8692 1.75781 18.5425 1.75781 15C1.75781 11.4561 3.134 8.12865 5.63303 5.63063C8.13123 3.13318 11.4579 1.75781 15 1.75781C18.5436 1.75781 21.871 3.13389 24.369 5.6325C26.8666 8.13076 28.2422 11.4575 28.2422 15C28.2422 18.5389 26.8662 21.8646 24.3676 24.3643C21.8681 26.865 18.5413 28.2422 15 28.2422Z" fill="url(#paint0_linear)"/>
<path d="M15 0C6.70734 0 0 6.69984 0 15C0 23.2941 6.70102 30 15 30C19.011 30 22.7793 28.4399 25.6109 25.607C28.4412 22.7753 30 19.0083 30 15C30 6.70588 23.299 0 15 0ZM5.27344 15C5.27344 13.3047 5.70328 11.6764 6.51082 10.2394L19.7606 23.4893C18.324 24.2968 16.6956 24.7266 15 24.7266C9.62039 24.7266 5.27344 20.3845 5.27344 15ZM23.4891 19.7606L10.2393 6.5107C11.676 5.70328 13.3044 5.27344 15 5.27344C20.3796 5.27344 24.7266 9.61547 24.7266 15C24.7266 16.6954 24.2967 18.3237 23.4891 19.7606Z" fill="url(#paint1_linear)"/>
<defs>
<linearGradient id="paint0_linear" x1="15" y1="28.2422" x2="15" y2="1.75781" gradientUnits="userSpaceOnUse">
<stop stop-color="white"/>
<stop offset="1" stop-color="white"/>
</linearGradient>
<linearGradient id="paint1_linear" x1="15" y1="30" x2="15" y2="0" gradientUnits="userSpaceOnUse">
<stop stop-color="#784AF8"/>
<stop offset="1" stop-color="#8B65F4"/>
</linearGradient>
</defs>
</svg>
