<svg width="30" height="30" viewBox="0 0 30 30" fill="none" xmlns="http://www.w3.org/2000/svg">
<path d="M15 30C23.2843 30 30 23.2843 30 15C30 6.71573 23.2843 0 15 0C6.71573 0 0 6.71573 0 15C0 23.2843 6.71573 30 15 30Z" fill="#8B65F4"/>
<path d="M8.7066 21.7666L16.7981 29.858C23.612 29.0536 29.0063 23.7066 29.858 16.8927L21.7192 8.75394L8.7066 21.7666Z" fill="#784BF8"/>
<path d="M22.0978 18.3123C22.7602 18.9748 22.7602 20.1104 22.0978 20.7729L20.7728 22.0978C20.1104 22.7603 18.9747 22.7603 18.3123 22.0978L7.90218 11.6877C7.23972 11.0253 7.23972 9.88961 7.90218 9.22715L9.27442 7.85491C9.93688 7.19245 11.0725 7.19245 11.735 7.85491L22.0978 18.3123Z" fill="white"/>
<path d="M16.6088 12.776L12.776 16.6088L18.3123 22.0978C18.9747 22.7603 20.1104 22.7603 20.7728 22.0978L22.1451 20.7256C22.8075 20.0631 22.8075 18.9275 22.1451 18.265L16.6088 12.776Z" fill="#D6D6D6"/>
<path d="M18.3123 7.90221C18.9747 7.23975 20.1104 7.23975 20.7728 7.90221L22.1451 9.27445C22.8075 9.93691 22.8075 11.0726 22.1451 11.735L11.6877 22.0978C11.0252 22.7603 9.88956 22.7603 9.2271 22.0978L7.90218 20.7729C7.23972 20.1104 7.23972 18.9748 7.90218 18.3123L18.3123 7.90221Z" fill="white"/>
</svg>
