<svg width="30" height="30" viewBox="0 0 30 30" fill="none" xmlns="http://www.w3.org/2000/svg">
<g clip-path="url(#clip0)">
<path d="M15 30C23.2843 30 30 23.2843 30 15C30 6.71573 23.2843 0 15 0C6.71573 0 0 6.71573 0 15C0 23.2843 6.71573 30 15 30Z" fill="#8B65F4"/>
<path d="M11.1672 21.7666L18.8802 29.4795C25.2682 27.776 30 21.9558 30 15C30 14.858 30 14.7161 30 14.5741L23.9433 8.99054L11.1672 21.7666Z" fill="#784AF8"/>
<path d="M15.3786 18.3596C16.041 19.0221 16.041 20.1577 15.3786 20.8202L14.0063 22.1924C13.3439 22.8549 12.2082 22.8549 11.5457 22.1924L5.53627 16.1356C4.87381 15.4732 4.87381 14.3375 5.53627 13.6751L6.90852 12.3028C7.57098 11.6404 8.70663 11.6404 9.36909 12.3028L15.3786 18.3596Z" fill="white"/>
<path d="M20.6309 7.90221C21.2934 7.23975 22.429 7.23975 23.0915 7.90221L24.4637 9.27445C25.1262 9.93691 25.1262 11.0726 24.4637 11.735L14.0537 22.0978C13.3912 22.7603 12.2555 22.7603 11.5931 22.0978L10.2208 20.7256C9.55838 20.0631 9.55838 18.9274 10.2208 18.265L20.6309 7.90221Z" fill="white"/>
</g>
<defs>
<clipPath id="clip0">
<rect width="30" height="30" fill="white"/>
</clipPath>
</defs>
</svg>
