<svg width="30" height="30" viewBox="0 0 30 30" fill="none" xmlns="http://www.w3.org/2000/svg">
<path d="M15 30C23.2843 30 30 23.2843 30 15C30 6.71573 23.2843 0 15 0C6.71573 0 0 6.71573 0 15C0 23.2843 6.71573 30 15 30Z" fill="#8B65F4"/>
<path d="M8.7066 21.7666L16.7981 29.858C23.612 29.0536 29.0063 23.7066 29.858 16.8927L21.7192 8.75394L8.7066 21.7666Z" fill="#784AF8"/>
<path d="M21 8.875H17.6667L17.4056 8.36368C17.3502 8.25436 17.265 8.16241 17.1595 8.09816C17.054 8.03391 16.9324 7.99992 16.8083 8H13.6333C13.5095 7.99954 13.3881 8.0334 13.283 8.09772C13.1779 8.16204 13.0933 8.25421 13.0389 8.36368L12.7778 8.875H9.44444C9.32657 8.875 9.21352 8.9211 9.13017 9.00315C9.04683 9.08519 9 9.19647 9 9.3125V10.1875C9 10.3035 9.04683 10.4148 9.13017 10.4969C9.21352 10.5789 9.32657 10.625 9.44444 10.625H21C21.1179 10.625 21.2309 10.5789 21.3143 10.4969C21.3976 10.4148 21.4444 10.3035 21.4444 10.1875V9.3125C21.4444 9.19647 21.3976 9.08519 21.3143 9.00315C21.2309 8.9211 21.1179 8.875 21 8.875ZM10.4778 20.7695C10.499 21.1027 10.6484 21.4155 10.8956 21.6441C11.1428 21.8727 11.4692 22 11.8083 22H18.6361C18.9753 22 19.3017 21.8727 19.5489 21.6441C19.7961 21.4155 19.9455 21.1027 19.9667 20.7695L20.5556 11.5H9.88889L10.4778 20.7695Z" fill="white"/>
</svg>
