<svg width="24" height="24" viewBox="0 0 24 24" fill="none" xmlns="http://www.w3.org/2000/svg">
<g clip-path="url(#clip0)">
<path d="M24 15.6867V18.4192C24 19.3472 21.5252 20.1206 18.4834 20.1206C15.4415 20.1206 13.0184 19.373 13.0184 18.445V18.1357L12.9668 15.9703H12.9926C13.405 16.7694 15.6735 17.3881 18.406 17.3881C21.1385 17.3881 23.9484 16.6148 23.9484 15.6867H24V15.6867Z" fill="#68717A"/>
<path d="M18.3287 5.52991V8.23665H18.2771C18.2771 9.19047 15.7251 9.93805 12.709 9.93805C11.549 9.9638 10.3631 9.83492 9.22886 9.55136L9.1773 9.60292C8.61017 9.13891 7.96572 8.77802 7.2697 8.54602V8.49446L7.19238 5.63303C7.37283 6.50949 9.77024 7.2055 12.6832 7.2055C15.5962 7.2055 18.2771 6.45793 18.2771 5.52991H18.3287Z" fill="#95999D"/>
<path d="M18.3287 5.58148C18.3287 6.5095 15.7766 7.25708 12.7347 7.25708C9.69287 7.25708 7.39858 6.56106 7.21814 5.68461C7.21814 5.65885 7.19238 5.60729 7.19238 5.58148C7.19238 4.65346 9.66712 3.88008 12.7348 3.88008C15.8024 3.85432 18.3287 4.62766 18.3287 5.58148Z" fill="#D1D1D1"/>
<path d="M12.9926 15.9702L12.9668 15.4031L12.9153 13.083C13.0957 13.9595 15.4931 14.6555 18.4061 14.6555C21.3191 14.6555 23.897 13.9079 23.9743 13.0057H24V15.6867H23.9485C23.9485 16.6147 21.4479 17.3881 18.4061 17.3881C15.3643 17.388 13.4051 16.7694 12.9926 15.9702Z" fill="#95999D"/>
<path d="M9.30615 17.6974C10.0022 17.0529 10.5435 16.228 10.8271 15.3258H10.9559C11.5231 15.3773 12.0902 15.4031 12.7089 15.4031H12.9667V15.9702L13.0182 18.1356H12.7347C11.6004 18.1614 10.4919 18.0325 9.38347 17.7748L9.30615 17.6974Z" fill="#68717A"/>
<path d="M12.9926 12.8768V13.0057L13.0442 15.4031H12.7864C12.1419 15.4031 11.549 15.3774 10.9819 15.3258H10.853C11.0335 14.7845 11.1108 14.2173 11.1108 13.6502C11.1108 13.2635 11.0592 12.9026 10.9819 12.5417H11.1108C11.6521 12.5933 12.1935 12.619 12.7864 12.619L13.0184 12.7479C12.9926 12.7994 12.9926 12.851 12.9926 12.8768Z" fill="#95999D"/>
<path d="M9.229 9.55137C10.3633 9.83494 11.5491 9.96382 12.7091 9.93806C15.7252 9.93806 18.2773 9.19049 18.2773 8.23666H18.3289V11.2785C15.519 11.2785 13.2247 11.9488 12.9411 12.7994L12.7091 12.6706C12.142 12.6706 11.6007 12.6448 11.0851 12.5932H10.9562C10.7242 11.4074 10.1055 10.3505 9.17749 9.57713L9.229 9.55137Z" fill="#68717A"/>
<path d="M11.0076 12.5932C10.7499 11.4074 10.1054 10.3247 9.17736 9.52561C8.61023 9.01003 7.93997 8.64915 7.2182 8.4429C6.70263 8.26246 6.1355 8.18514 5.59417 8.18514C2.5265 8.15928 0.0259577 10.6083 0.000201315 13.6759C-0.0255551 16.7435 2.42337 19.244 5.49104 19.2698C6.90888 19.2698 8.24934 18.7542 9.30624 17.8004C10.0281 17.1301 10.5694 16.2795 10.853 15.3514C11.0334 14.8101 11.1107 14.2687 11.1107 13.7016C11.1108 13.3408 11.0076 12.9541 11.0076 12.5932Z" fill="#D1D1D1"/>
<path d="M23.9743 12.9541V13.0057C23.897 13.9079 21.3964 14.6555 18.4061 14.6555C15.4158 14.6555 13.0957 13.9595 12.9153 13.083V12.9542C12.9153 12.9026 12.9153 12.851 12.941 12.7995C13.2246 11.9488 15.5189 11.2786 18.3288 11.2786H18.4061C21.448 11.2785 23.9743 12.0261 23.9743 12.9541Z" fill="#D1D1D1"/>
<path d="M5.59411 13.0314C5.1301 13.0314 4.74341 12.6448 4.74341 12.1807C4.74341 11.7167 5.1301 11.33 5.59411 11.33C6.05812 11.33 6.44481 11.7167 6.44481 12.1807C6.44481 12.4643 6.67682 12.6963 6.96038 12.6963C7.24395 12.6963 7.47595 12.4643 7.47595 12.1807C7.47595 11.3559 6.90882 10.6083 6.10968 10.3763V10.17C6.10968 9.88645 5.87768 9.65445 5.59411 9.65445C5.31054 9.65445 5.07854 9.88645 5.07854 10.17V10.3763C4.25365 10.5825 3.68651 11.3301 3.71227 12.1807C3.71227 13.2119 4.56297 14.0626 5.59411 14.0626C6.05812 14.0626 6.44481 14.4493 6.44481 14.9133C6.44481 15.3773 6.05812 15.764 5.59411 15.764C5.1301 15.764 4.74341 15.3773 4.74341 14.9133C4.74341 14.6297 4.51141 14.3977 4.22784 14.3977C3.94427 14.3977 3.71227 14.6297 3.71227 14.9133C3.71227 15.764 4.2794 16.4858 5.07854 16.7178V17.1302C5.07854 17.4138 5.31054 17.6458 5.59411 17.6458C5.87768 17.6458 6.10968 17.4138 6.10968 17.1302V16.7178C7.11502 16.4342 7.68215 15.3773 7.37283 14.3719C7.14083 13.5986 6.41901 13.0314 5.59411 13.0314Z" fill="#68717A"/>
</g>
<defs>
<clipPath id="clip0">
<rect width="24" height="24" fill="white"/>
</clipPath>
</defs>
</svg>
