<svg width="30" height="30" viewBox="0 0 30 30" fill="none" xmlns="http://www.w3.org/2000/svg">
<path d="M15 30C23.2843 30 30 23.2843 30 15C30 6.71573 23.2843 0 15 0C6.71573 0 0 6.71573 0 15C0 23.2843 6.71573 30 15 30Z" fill="#8B65F4"/>
<path d="M8.7066 21.7666L16.7981 29.858C23.612 29.0536 29.0063 23.7066 29.858 16.8927L21.7192 8.75394L8.7066 21.7666Z" fill="#784AF8"/>
<path d="M22.1271 11.8837L20.7264 13.1442C20.5836 13.2728 20.3527 13.2728 20.2099 13.1442L16.8374 10.109C16.6946 9.98045 16.6946 9.77263 16.8374 9.64411L18.238 8.38351C18.8062 7.87216 19.7298 7.87216 20.301 8.38351L22.1271 10.0269C22.6983 10.5383 22.6983 11.3696 22.1271 11.8837ZM15.6342 10.727L7.65556 17.9077L7.01143 21.2301C6.92332 21.6786 7.3578 22.0669 7.85609 21.9903L11.5476 21.4079L19.5263 14.2271C19.6691 14.0986 19.6691 13.8908 19.5263 13.7622L16.1537 10.727C16.0079 10.5984 15.777 10.5984 15.6342 10.727ZM10.7698 17.2925C10.6027 17.1421 10.6027 16.9014 10.7698 16.751L15.4488 12.5399C15.616 12.3895 15.8833 12.3895 16.0504 12.5399C16.2175 12.6903 16.2175 12.931 16.0504 13.0814L11.3714 17.2925C11.2043 17.4429 10.9369 17.4429 10.7698 17.2925ZM9.673 19.5922H11.1314V20.5848L9.17168 20.8938L8.22676 20.0434L8.57009 18.2796H9.673V19.5922Z" fill="white"/>
</svg>
