<svg width="30" height="30" viewBox="0 0 30 30" fill="none" xmlns="http://www.w3.org/2000/svg">
<path d="M30 15C30 23.2844 23.2844 30 15 30C6.71562 30 0 23.2844 0 15C0 6.71562 6.71562 0 15 0C23.2844 0 30 6.71562 30 15Z" fill="url(#paint0_linear)"/>
<path d="M20.1846 4.71472H12.323C10.5444 4.71472 9.09737 6.16171 9.09737 7.94035V9.50499C9.09737 9.99022 9.49081 10.3839 9.97627 10.3839C10.4615 10.3839 10.8552 9.99022 10.8552 9.50499V7.94035C10.8552 7.13103 11.5134 6.47253 12.323 6.47253H20.1846C20.994 6.47253 21.6525 7.13103 21.6525 7.94035V21.7081C21.6525 22.5174 20.994 23.1759 20.1846 23.1759H12.323C11.5134 23.1759 10.8552 22.5174 10.8552 21.7081V20.1434C10.8552 19.6582 10.4615 19.2645 9.97627 19.2645C9.49081 19.2645 9.09737 19.6582 9.09737 20.1434V21.7081C9.09737 23.4867 10.5444 24.9337 12.323 24.9337H20.1846C21.9633 24.9337 23.4103 23.4867 23.4103 21.7081V7.94035C23.4103 6.16171 21.9633 4.71472 20.1846 4.71472Z" fill="white"/>
<path d="M12.0559 16.7816C11.7114 17.1236 11.7091 17.68 12.0511 18.0247C12.223 18.1979 12.4489 18.2847 12.675 18.2847C12.8986 18.2847 13.1227 18.1995 13.2939 18.0295L15.0595 16.2778C15.4507 15.8899 15.6658 15.3738 15.6658 14.8242C15.6658 14.2747 15.4507 13.7585 15.0595 13.3706L13.2939 11.6187C12.9494 11.277 12.393 11.2791 12.0511 11.6238C11.7091 11.9682 11.7112 12.5249 12.0559 12.8666L13.1431 13.9453H4.07021C3.58475 13.9453 3.1913 14.3388 3.1913 14.8242C3.1913 15.3097 3.58475 15.7031 4.07021 15.7031H13.1431L12.0559 16.7816Z" fill="white"/>
<defs>
<linearGradient id="paint0_linear" x1="0" y1="15" x2="30" y2="15" gradientUnits="userSpaceOnUse">
<stop stop-color="#7749F8" stop-opacity="0.6"/>
<stop offset="0.231" stop-color="#7749F8" stop-opacity="0.7"/>
<stop offset="0.5138" stop-color="#7749F8" stop-opacity="0.8"/>
<stop offset="0.7773" stop-color="#7749F8" stop-opacity="0.9"/>
<stop offset="1" stop-color="#7749F8"/>
</linearGradient>
</defs>
</svg>
