<svg width="50" height="50" viewBox="0 0 50 50" fill="none" xmlns="http://www.w3.org/2000/svg">
<circle cx="25" cy="25" r="25" fill="#E6DDFF"/>
<path d="M18.9476 11.7926L22.9245 7.81573L24.9129 9.80417L20.9361 13.781L18.9476 11.7926Z" fill="white"/>
<path d="M22.2616 15.1074L26.2385 11.1305L28.2269 13.119L24.25 17.0958L22.2616 15.1074Z" fill="white"/>
<path d="M20.936 13.7813L24.9129 9.80444L26.2385 11.1301L22.2617 15.1069L20.936 13.7813Z" fill="white"/>
<path d="M20.1676 14.8827C20.6004 14.4498 20.8983 14.0134 20.9384 13.7803L18.9497 11.7916C19.199 12.3142 19.1087 12.9583 18.6761 13.3911C18.2433 13.8239 17.5992 13.9141 17.0765 13.6647L19.0653 15.6534C19.2986 15.6134 19.735 15.3155 20.1676 14.8827Z" fill="white"/>
<path d="M21.162 15.8772C20.7292 16.31 20.4312 16.7464 20.3912 16.9795L22.38 18.9684C22.1306 18.4458 22.2208 17.8015 22.6536 17.3687C23.0864 16.9359 23.7306 16.8458 24.2533 17.0951L22.2645 15.1062C22.0314 15.1464 21.5948 15.4444 21.162 15.8772Z" fill="white"/>
<path d="M20.3912 16.9795L19.7283 16.3166L20.3912 16.9795Z" fill="#6287C5"/>
<path d="M22.2644 15.1062L21.6824 14.5244L21.6014 14.4433L21.9255 14.7675L22.2644 15.1062Z" fill="#6287C5"/>
<path d="M22.2645 15.1062L21.9257 14.7675L21.6015 14.4433L20.9386 13.7803C20.8984 14.0134 20.6004 14.4498 20.1678 14.8826C19.7351 15.3155 19.2986 15.6133 19.0654 15.6534L19.7284 16.3164L20.3914 16.9794C20.4315 16.7462 20.7293 16.3098 21.1621 15.877C21.5948 15.4444 22.0314 15.1464 22.2645 15.1062Z" fill="white"/>
<path d="M24.2533 17.5638C24.1289 17.5638 24.0097 17.5144 23.9219 17.4264L18.6184 12.123C18.5306 12.0352 18.4811 11.9158 18.4811 11.7916C18.4811 11.6672 18.5305 11.548 18.6184 11.46L22.5959 7.4825C22.779 7.29953 23.0756 7.29953 23.2587 7.4825L28.5619 12.7858C28.745 12.9688 28.745 13.2656 28.5619 13.4486L24.5845 17.4261C24.4967 17.5144 24.3776 17.5638 24.2533 17.5638ZM19.6128 11.7916L24.2533 16.432L27.5678 13.1175L22.9275 8.47719L19.6128 11.7916Z" fill="#F1F4F6"/>
<path d="M11.9943 29.7958L14.4249 32.2264L16.4137 30.2377L13.8041 27.6281L11.8201 29.6125C11.8777 29.6739 11.9344 29.7358 11.9943 29.7958Z" fill="white"/>
<path d="M11.9943 18.7472C9.4805 21.261 9.03988 25.0608 10.6686 28.0278C10.5475 26.5683 12.09 23.8705 14.6038 21.3567L19.6861 16.2744L17.0766 13.6649L11.9943 18.7472Z" fill="white"/>
<path d="M17.1158 24.3132L22.4183 19.0107L25.0274 21.6198L19.7249 26.9223L17.1158 24.3132Z" fill="#F1F4F6"/>
<path d="M14.6038 21.3567C12.09 23.8705 10.5475 26.5684 10.6686 28.0278C10.9779 28.5911 11.3616 29.1238 11.82 29.6124L13.8043 27.6281L13.4307 27.2545C13.0571 26.8809 12.8386 26.4122 12.77 25.9264C12.6707 25.2222 12.8889 24.4816 13.4307 23.94C13.9724 23.3984 14.7129 23.1799 15.4171 23.2794C15.9029 23.348 16.3716 23.5664 16.7452 23.94L17.1188 24.3136L22.4221 19.0103L19.6861 16.2744L14.6038 21.3567Z" fill="white"/>
<path d="M14.4248 32.6953C14.3004 32.6953 14.1812 32.6459 14.0934 32.558L11.6628 30.1272C10.0986 28.5631 9.2373 26.4834 9.2373 24.2714C9.2373 22.0594 10.0987 19.9798 11.6628 18.4156L16.745 13.3334C16.9207 13.1575 17.232 13.1575 17.4078 13.3334L25.3628 21.2884C25.4506 21.3762 25.5001 21.4956 25.5001 21.6198C25.5001 21.7442 25.4507 21.8634 25.3628 21.9512L20.0595 27.2545C19.8764 27.4376 19.5798 27.4376 19.3967 27.2545L16.4136 24.2714C16.0593 23.9173 15.5886 23.7222 15.0878 23.7222C14.587 23.7222 14.1161 23.9173 13.762 24.2714C13.4078 24.6256 13.2128 25.0964 13.2128 25.5972C13.2128 26.0981 13.4078 26.5689 13.762 26.923L16.7451 29.9062C16.8329 29.9941 16.8825 30.1134 16.8825 30.2376C16.8825 30.362 16.8331 30.4812 16.7451 30.5692L14.7562 32.558C14.6684 32.6459 14.5492 32.6953 14.4248 32.6953ZM17.0765 14.3278L12.3257 19.0787C10.9387 20.4658 10.1748 22.31 10.1748 24.2716C10.1748 26.2331 10.9387 28.0773 12.3257 29.4644L14.425 31.5636L15.7507 30.2378L13.0992 27.5861C12.5679 27.055 12.2754 26.3486 12.2754 25.5973C12.2754 24.8461 12.5679 24.1398 13.0992 23.6086C13.6303 23.0775 14.3365 22.7848 15.0879 22.7848C15.8393 22.7848 16.5454 23.0775 17.0767 23.6086L19.7284 26.2601L24.3689 21.6198L17.0765 14.3278Z" fill="#F1F4F6"/>
<path d="M22.3801 19.437C22.2593 19.437 22.1392 19.3905 22.0486 19.2997L16.7451 13.9963C16.5837 13.8348 16.562 13.5806 16.6937 13.3942C16.8254 13.208 17.072 13.1434 17.2784 13.2417C17.6362 13.4122 18.0648 13.3394 18.3446 13.0595C18.6242 12.7798 18.6975 12.3514 18.5265 11.9934C18.4282 11.7873 18.4926 11.5406 18.6792 11.4087C18.8657 11.2769 19.1198 11.2986 19.2812 11.46L24.5848 16.7634C24.7462 16.9248 24.7679 17.1791 24.6362 17.3655C24.5045 17.5517 24.2579 17.6163 24.0515 17.518C23.6935 17.3473 23.2648 17.4202 22.9851 17.6998C22.7054 17.9797 22.6321 18.4081 22.8031 18.7663C22.9015 18.9722 22.8371 19.2192 22.6506 19.3509C22.5689 19.4088 22.4743 19.437 22.3801 19.437ZM18.2554 14.1806L21.864 17.7892C21.9528 17.5113 22.1071 17.2522 22.3223 17.0372C22.5373 16.822 22.7964 16.6678 23.0743 16.5789L19.4657 12.9705C19.3768 13.2484 19.2226 13.5075 19.0075 13.7225C18.7925 13.9377 18.5332 14.0919 18.2554 14.1806ZM18.6761 13.3911H18.6776H18.6761Z" fill="#F1F4F6"/>
<path d="M19.7242 26.9225L21.7204 24.9264L23.046 26.252L21.0499 28.2482L19.7242 26.9225Z" fill="#784AF8"/>
<path d="M23.0311 23.6163L25.0273 21.6201L26.3529 22.9458L24.3568 24.9419L23.0311 23.6163Z" fill="#784AF8"/>
<path d="M21.7207 24.9264L23.0309 23.6163L24.3565 24.9419L23.0463 26.2521L21.7207 24.9264Z" fill="#784AF8"/>
<path d="M21.0539 28.7177C20.9339 28.7177 20.8141 28.6719 20.7225 28.5803L19.3967 27.2545C19.3089 27.1667 19.2594 27.0473 19.2594 26.9231C19.2594 26.7987 19.3088 26.6795 19.3967 26.5916L24.7 21.2884C24.8832 21.1053 25.1797 21.1053 25.3629 21.2884L26.6886 22.6142C26.7765 22.702 26.826 22.8214 26.826 22.9456C26.826 23.07 26.7766 23.1892 26.6886 23.2772L21.3853 28.5803C21.2938 28.6719 21.1739 28.7177 21.0539 28.7177ZM20.391 26.9231L21.0539 27.5861L25.6944 22.9458L25.0314 22.2828L20.391 26.9231Z" fill="#784AF8"/>
<path d="M24.361 24.9422L38.3958 38.977C38.6991 39.2803 38.6991 39.7722 38.3958 40.0755L39.8366 38.6347C40.4468 38.0245 40.4468 37.0352 39.8366 36.425L26.3574 22.9458L24.361 24.9422Z" fill="#784AF8"/>
<path d="M37.0854 40.2873L23.0506 26.2525L21.0542 28.2489L34.5334 41.7281C35.1436 42.3383 36.1329 42.3383 36.7431 41.7281L38.1839 40.2873C37.8805 40.5908 37.3887 40.5908 37.0854 40.2873Z" fill="#784AF8"/>
<path d="M38.3957 38.977L24.3609 24.9422L23.0504 26.2527L37.0853 40.2875C37.3885 40.5908 37.8804 40.5908 38.1837 40.2875L38.3957 40.0755C38.699 39.772 38.699 39.2803 38.3957 38.977Z" fill="#784AF8"/>
<path d="M35.638 42.6545C35.0954 42.6545 34.5854 42.4433 34.2018 42.0595L20.7225 28.5803C20.6347 28.4925 20.5852 28.3731 20.5852 28.2489C20.5852 28.1245 20.6346 28.0053 20.7225 27.9174L26.0258 22.6142C26.209 22.4311 26.5055 22.4311 26.6886 22.6142L40.1679 36.0934C40.5516 36.477 40.7629 36.9872 40.7629 37.5297C40.7629 38.0722 40.5515 38.5824 40.1679 38.9659L37.0743 42.0595C36.6907 42.4433 36.1807 42.6545 35.638 42.6545ZM21.7168 28.2489L34.8646 41.3967C35.2911 41.8231 35.9849 41.8231 36.4115 41.3967L39.505 38.3031C39.7116 38.0966 39.8254 37.8219 39.8254 37.5299C39.8254 37.2377 39.7116 36.963 39.505 36.7564L26.3572 23.6088L21.7168 28.2489Z" fill="#784AF8"/>
</svg>
