<svg width="24" height="24" viewBox="0 0 24 24" fill="none" xmlns="http://www.w3.org/2000/svg">
<g clip-path="url(#clip0)">
<path d="M16.1231 8.39007L17.3442 10.9618C17.4709 11.2384 17.7274 11.4334 18.0278 11.4815L20.7365 11.8908C21.0881 11.9606 21.3728 12.2181 21.4775 12.5609C21.5822 12.9037 21.4898 13.2763 21.2372 13.5306L19.2924 15.4999C19.0726 15.7264 18.974 16.044 19.0267 16.3552L19.4897 19.1495C19.5643 19.4959 19.4334 19.8543 19.153 20.071C18.8726 20.2877 18.4928 20.3241 18.1764 20.1645L15.7288 18.8276C15.4682 18.6845 15.1526 18.6845 14.8921 18.8276L12.4449 20.165C12.1284 20.3248 11.7482 20.2885 11.4677 20.0717C11.1871 19.8549 11.0562 19.4961 11.1311 19.1495L11.5921 16.3552C11.6448 16.044 11.5462 15.7264 11.3264 15.4999L9.38161 13.5306C9.12896 13.2763 9.03663 12.9037 9.1413 12.5609C9.24598 12.2181 9.5307 11.9606 9.8823 11.8908L12.591 11.4815C12.8914 11.4334 13.1479 11.2384 13.2746 10.9618L14.4957 8.39007C14.6373 8.06695 14.9566 7.85822 15.3094 7.85822C15.6622 7.85822 15.9815 8.06695 16.1231 8.39007Z" fill="#D1D1D1"/>
<path d="M19.2951 15.499C19.0751 15.726 18.9754 16.0436 19.0262 16.3556L19.4896 19.1487C19.5642 19.4957 19.433 19.8548 19.1522 20.072C18.8714 20.2892 18.4909 20.326 18.1737 20.1666L15.7282 18.8276C15.4673 18.6869 15.1532 18.6869 14.8924 18.8276L12.4468 20.1683C12.1296 20.3276 11.7491 20.2908 11.4684 20.0736C11.1876 19.8564 11.0564 19.4974 11.131 19.1503L11.2344 18.5338C17.3793 14.8179 16.4234 9.78206 15.8648 8.05655C15.974 8.14795 16.0616 8.26242 16.1213 8.39172L17.342 10.9655C17.4722 11.2402 17.7289 11.4335 18.0289 11.4828L20.7351 11.8924C21.0866 11.962 21.3712 12.2192 21.4759 12.5619C21.5806 12.9045 21.4883 13.2769 21.2358 13.531L19.2951 15.499Z" fill="#95999D"/>
<path d="M8.92515 0.423306L9.90212 2.48275C10.0042 2.70295 10.2091 2.85802 10.4487 2.89655L12.6154 3.22386C12.8966 3.27967 13.1244 3.48558 13.2082 3.75978C13.292 4.03399 13.2183 4.33206 13.0163 4.53558L11.4621 6.11048C11.2864 6.29177 11.2075 6.54596 11.2498 6.79489L11.6185 9.02938C11.6779 9.30639 11.573 9.59289 11.3489 9.76612C11.1247 9.93934 10.821 9.96856 10.5679 9.84124L8.60984 8.77241C8.40163 8.65739 8.14894 8.65739 7.94073 8.77241L5.98307 9.84207C5.72999 9.96938 5.4263 9.94017 5.20213 9.76694C4.97796 9.59372 4.87309 9.30722 4.93245 9.0302L5.30114 6.79572C5.34347 6.54679 5.26463 6.29259 5.08887 6.11131L3.53424 4.53558C3.33227 4.33206 3.25855 4.03399 3.34237 3.75978C3.42619 3.48558 3.65397 3.27967 3.93521 3.22386L6.10183 2.89655C6.34148 2.85802 6.54633 2.70295 6.64845 2.48275L7.62542 0.425375C7.73872 0.167871 7.99329 0.00147107 8.27461 0.00102324C8.55594 0.000575413 8.81103 0.166164 8.92515 0.423306Z" fill="#D1D1D1"/>
<path d="M11.4622 6.11006C11.2862 6.29162 11.2064 6.54572 11.247 6.79531L11.6194 9.02979C11.679 9.30733 11.5741 9.59447 11.3496 9.7682C11.1251 9.94194 10.8208 9.97147 10.5671 9.84414L8.60947 8.77241C8.40093 8.65985 8.14973 8.65985 7.94119 8.77241L5.98477 9.84496C5.73106 9.97229 5.42679 9.94277 5.20229 9.76903C4.97779 9.59529 4.87288 9.30816 4.93249 9.03062L5.01525 8.53738C9.93112 5.56386 9.1656 1.53599 8.71871 0.155579C8.80669 0.228526 8.87736 0.320113 8.9256 0.423717L9.9005 2.48275C10.0047 2.70249 10.2101 2.85713 10.45 2.89655L12.6146 3.22427C12.8958 3.27988 13.1235 3.48569 13.2073 3.75981C13.2911 4.03392 13.2172 4.33189 13.0151 4.53517L11.4622 6.11006Z" fill="#95999D"/>
<path d="M18.8441 18.1903L21.9393 15.6C22.45 15.1711 23.2076 15.2192 23.66 15.7092C24.1124 16.1992 24.1 16.9582 23.6317 17.4331L18.4676 22.6924C18.1761 22.988 17.7819 23.16 17.3669 23.1724H9.89379C9.3651 23.1732 8.84135 23.2743 8.35035 23.4703L7.03448 24H0V23.1724C0 23.1724 2.06897 21.5172 2.89655 20.6897C6.2069 17.3793 8.67724 16.9655 10.3324 16.9655C11.0029 16.9631 11.6531 17.1959 12.1697 17.6234C12.3117 17.7365 12.4888 17.7965 12.6703 17.7931H16.9324C17.1813 17.8284 17.4222 17.9068 17.6441 18.0248C17.7084 18.07 17.7692 18.1198 17.8262 18.1738C17.9863 18.3369 18.1029 18.5375 18.1655 18.7572L18.8441 18.1903Z" fill="#68717A"/>
<path d="M19.0304 18.9434C19.0628 19.3977 18.9037 19.8448 18.5917 20.1765C18.2745 20.5058 17.8365 20.6911 17.3793 20.6896H12.8276C12.5991 20.6896 12.4138 20.5044 12.4138 20.2759C12.4138 20.0473 12.5991 19.8621 12.8276 19.8621H17.3793C17.6101 19.8646 17.8317 19.7718 17.9917 19.6055C18.1457 19.4403 18.2237 19.2183 18.2069 18.9931C18.1995 18.9135 18.1857 18.8346 18.1655 18.7572C18.1614 18.7572 18.8442 18.1903 18.8442 18.1903C18.9534 18.4273 19.0166 18.6829 19.0304 18.9434Z" fill="#D1D1D1"/>
<path d="M18.9993 1.07585L19.5691 2.27585C19.6285 2.4047 19.7481 2.49559 19.8881 2.51834L21.1522 2.70951C21.3157 2.74292 21.4478 2.86308 21.4965 3.02266C21.5451 3.18224 21.5026 3.35566 21.3856 3.47461L20.479 4.39323C20.3763 4.4989 20.3302 4.64726 20.3549 4.79254L20.5696 6.0964C20.6043 6.258 20.5431 6.42513 20.4124 6.52621C20.2816 6.62729 20.1045 6.6444 19.9568 6.5702L18.8151 5.94578C18.6936 5.87917 18.5465 5.87917 18.4249 5.94578L17.2829 6.5702C17.1352 6.6444 16.9581 6.62729 16.8273 6.52621C16.6966 6.42513 16.6354 6.258 16.67 6.0964L16.8852 4.79254C16.9097 4.64727 16.8636 4.49901 16.7611 4.39323L15.8545 3.47461C15.7375 3.3556 15.695 3.18211 15.7438 3.02251C15.7925 2.86292 15.9247 2.7428 16.0882 2.70951L17.352 2.51834C17.4921 2.49573 17.6117 2.4048 17.671 2.27585L18.2408 1.07585C18.3066 0.925063 18.4555 0.827591 18.62 0.827591C18.7846 0.827591 18.9335 0.925063 18.9993 1.07585Z" fill="#D1D1D1"/>
<path d="M20.4798 4.39199C20.3776 4.49794 20.3315 4.64605 20.3557 4.7913L20.5721 6.09475C20.607 6.25672 20.5458 6.42433 20.4147 6.52571C20.2837 6.62709 20.1061 6.64423 19.9581 6.56978L18.8152 5.94413C18.6936 5.87835 18.547 5.87835 18.4254 5.94413L17.2841 6.56978C17.1361 6.64423 16.9585 6.62709 16.8274 6.52571C16.6964 6.42433 16.6352 6.25672 16.6701 6.09475L16.7185 5.80716C19.5856 4.07337 19.1396 1.72344 18.8789 0.918198C18.9298 0.960943 18.9708 1.01433 18.9989 1.07461L19.5683 2.27585C19.6291 2.404 19.749 2.49415 19.8889 2.51709L21.1514 2.70827C21.3148 2.74166 21.4468 2.86169 21.4956 3.02114C21.5443 3.18059 21.502 3.35393 21.3852 3.47296L20.4798 4.39199Z" fill="#95999D"/>
</g>
<defs>
<clipPath id="clip0">
<rect width="24" height="24" fill="white"/>
</clipPath>
</defs>
</svg>
