<svg width="24" height="24" viewBox="0 0 24 24" fill="none" xmlns="http://www.w3.org/2000/svg">
<path d="M16.7204 0C13.2777 0 10.4868 2.68444 10.4868 5.99583V13.289H13.6438V6.11606C13.6438 4.54884 15.0212 3.27834 16.7203 3.27834C18.4195 3.27834 19.7969 4.54884 19.7969 6.11606V8.49441L22.9539 8.4953V5.99588C22.954 2.68444 20.1631 0 16.7204 0Z" fill="#D1D1D1"/>
<path d="M16.2304 11.2448H1.04614V24H16.2304V11.2448Z" fill="#D1D1D1"/>
<path d="M10.5213 16.5553C10.5213 17.0686 10.316 17.5336 9.98314 17.873L9.98174 20.198H7.29627L7.29252 17.873C6.95971 17.5336 6.75439 17.0686 6.75439 16.5553C6.75439 15.5152 7.59768 14.6719 8.63783 14.6719C9.67799 14.6719 10.5213 15.5152 10.5213 16.5553Z" fill="#68717A"/>
<path d="M16.2305 11.2448H8.63818V24H16.2305V11.2448Z" fill="#95999D"/>
<path d="M10.5214 16.5553C10.5214 17.0686 10.3161 17.5336 9.98325 17.873L9.98185 20.198H8.63794V14.6719C9.6781 14.6719 10.5214 15.5152 10.5214 16.5553Z" fill="#68717A"/>
</svg>
