<svg width="24" height="24" viewBox="0 0 24 24" fill="none" xmlns="http://www.w3.org/2000/svg">
<path d="M16.2166 3.49029L16.1475 3.46727L16.0769 3.48492L14.4922 3.88108L13.5932 3.58144L14.2229 2.32216H15.7236H15.7827L15.8354 2.29577L17.3457 1.54065C18.438 2.09541 19.4352 2.81977 20.3006 3.68629L19.3956 4.28963L17.4433 3.89918L16.2166 3.49029Z" fill="white" stroke="#68717A" stroke-width="0.5"/>
<path d="M9.43718 3.49028L9.34945 3.51952L9.30186 3.59883L8.09253 5.61435L6.1203 6.7977L3.27354 7.20438L3.0589 7.23504V7.45186V8.69335V8.7969L3.13212 8.87013L3.88652 9.62453V10.7091L3.03381 10.1406L3.0338 10.1406L1.86375 9.36059L1.20063 7.36741C2.40653 4.55649 4.66145 2.32755 7.4849 1.15381L8.54959 1.86612L8.59437 1.89608L8.64751 1.90494L10.8418 2.27065L10.5601 3.11599L9.43718 3.49028Z" fill="white" stroke="#68717A" stroke-width="0.5"/>
<path d="M4.31324 11.353L5.30946 10.3568L5.98197 11.7019L6.05107 11.8401H6.20558H8.96077L10.1294 13.7878L10.2023 13.9092H10.3438H11.6942L11.355 15.605L9.75321 17.2068L9.67999 17.28V17.3836V18.5001L8.12469 19.6665L8.02469 19.7415V19.8665V21.5888L7.22231 21.3213L6.45558 19.4045V15.3145V15.1095L6.25461 15.0693L4.30539 14.6795L3.55884 13.1863V12.1074L4.31324 11.353Z" fill="white" stroke="#68717A" stroke-width="0.5"/>
<path d="M19.9409 7.27513L22.3633 6.46768C24.4067 10.2889 24.1774 14.9259 21.771 18.5253L20.9395 17.6938V16.1421V16.0831L20.9131 16.0303L20.0855 14.375L19.2843 12.7725V11.1762V11.0424L19.1729 10.9682L17.9314 10.1405L17.8394 10.0792L17.7321 10.106L16.1585 10.4994L13.4683 9.34644L13.0921 6.71253L14.1719 5.63266H16.4175L17.1709 6.76282L17.231 6.85294L17.3379 6.87074L19.8208 7.28456L19.882 7.29476L19.9409 7.27513Z" fill="white" stroke="#68717A" stroke-width="0.5"/>
<path d="M14.4821 4.14128L16.1374 3.72747L17.3789 4.14128L19.448 4.55509L20.6895 3.72747C21.3826 4.45291 21.9806 5.26356 22.4689 6.14003L22.3448 6.21039L19.8619 7.03802L17.3789 6.62421L16.5513 5.38272H14.0684L12.8269 6.62421L13.2407 9.52095L16.1375 10.7624L17.7928 10.3486L19.0342 11.1762V12.8315L19.8619 14.4868L20.6895 16.1421V17.7974L21.8068 18.9148C17.9852 24.3301 10.497 25.6216 5.08215 21.7999C0.483328 18.5539 -1.24191 12.548 0.933563 7.35668L1.65361 9.52095L2.8951 10.3486L4.13658 11.1762L3.30891 12.0039V13.2454L4.13654 14.9007L6.20565 15.3145V19.4527L7.03328 21.5218L8.27477 21.9356V19.8665L9.93007 18.625V17.3835L11.5854 15.7282L11.9992 13.6591H10.3439L9.10239 11.59H6.20565L5.37803 9.93471L4.13654 11.1762V9.5209L3.30891 8.69332V7.45183L6.20565 7.03802L8.27477 5.79653L9.51625 3.72742L10.7577 3.31361L11.1716 2.07212L8.68863 1.65831L7.51337 0.872026C10.6957 -0.409586 14.2744 -0.26807 17.3458 1.26104L15.7236 2.07212H14.0683L13.2407 3.72742L14.4821 4.14128Z" fill="#68717A"/>
</svg>
