<svg width="24" height="24" viewBox="0 0 24 24" fill="none" xmlns="http://www.w3.org/2000/svg">
<g clip-path="url(#clip0)">
<path d="M4.81797 13.1565C4.95578 13.606 5.09825 14.0709 5.16934 14.5392C5.1984 14.73 5.31236 16.118 5.37397 16.8806C5.39758 17.1728 5.61915 17.4104 5.90899 17.4542L6.92158 17.6073C7.06758 17.6294 7.18401 17.7407 7.21244 17.8856L7.34585 18.568C7.40385 18.8646 7.66382 19.0785 7.96601 19.0784L15.8186 19.0737C16.1155 19.0735 16.3722 18.8665 16.4353 18.5764L16.5881 17.8738C16.6218 17.7351 16.7364 17.6309 16.8776 17.6104L18.1104 17.4313C18.4067 17.3883 18.632 17.1433 18.65 16.8445C18.6973 16.0599 18.7856 14.6314 18.813 14.4357C18.8778 13.9736 19.0142 13.5168 19.1459 13.0724C19.3306 12.4505 19.5215 11.8087 19.5215 11.1411C19.5217 6.878 16.1332 3.41043 11.9682 3.41043C7.80331 3.41043 4.41479 6.87988 4.41479 11.1439C4.41483 11.8413 4.61978 12.51 4.81797 13.1565ZM12.9525 12.7631C13.0004 11.5522 14.0862 11.2478 15.2971 11.2956C16.5079 11.3435 17.3853 11.7256 17.3374 12.9365C17.2895 14.1473 16.2691 15.0901 15.0582 15.0422C13.8474 14.9944 12.9046 13.974 12.9525 12.7631ZM12.2401 15.1391L13.0261 16.303C13.0958 16.4062 13.1053 16.5387 13.0511 16.6509L12.9384 16.8843C12.88 17.0051 12.7576 17.0818 12.6235 17.0818H11.9502H11.277C11.1428 17.0818 11.0205 17.0051 10.9621 16.8843L10.8494 16.6509C10.7952 16.5387 10.8048 16.4063 10.8744 16.303L11.6604 15.1391C11.7991 14.9338 12.1014 14.9338 12.2401 15.1391ZM8.6393 11.2956C9.85017 11.2478 10.936 11.5522 10.9839 12.7631C11.0318 13.974 10.089 14.9944 8.87813 15.0423C7.66727 15.0902 6.64687 14.1474 6.59899 12.9365C6.55111 11.7256 7.42844 11.3435 8.6393 11.2956Z" fill="#95999D"/>
<path d="M21.8176 2.29847C21.9118 1.72004 21.7357 1.10612 21.2882 0.660943C20.5696 -0.0541156 19.3971 -0.0671353 18.6636 0.632669C17.8966 1.36439 17.8858 2.57957 18.6311 3.3249L17.946 4.01C17.6723 4.28377 17.6723 4.72761 17.946 5.00137L19.1147 6.17008C19.3884 6.44385 19.8323 6.44385 20.106 6.17008L20.7911 5.48498C21.5365 6.23036 22.7517 6.21949 23.4834 5.45251C24.1832 4.71898 24.1701 3.54647 23.455 2.82785C23.0099 2.38039 22.396 2.20428 21.8176 2.29847Z" fill="#95999D"/>
<path d="M3.20881 5.48495L3.89391 6.17005C4.16768 6.44381 4.61152 6.44381 4.88525 6.17005L6.05396 5.00134C6.32772 4.72758 6.32772 4.28373 6.05396 4.00997L5.36886 3.32487C6.11423 2.57954 6.10337 1.36436 5.33639 0.632634C4.60285 -0.0671302 3.43038 -0.0541105 2.71171 0.660948C2.2643 1.10612 2.08818 1.72005 2.18238 2.29848C1.60395 2.20428 0.990062 2.3804 0.544845 2.82781C-0.170215 3.54644 -0.183274 4.71895 0.516531 5.45248C1.24826 6.21946 2.46344 6.23028 3.20881 5.48495Z" fill="#95999D"/>
<path d="M23.4834 18.5476C22.7516 17.7805 21.5365 17.7698 20.7911 18.5151L20.106 17.83C19.8323 17.5562 19.3884 17.5562 19.1147 17.83L17.946 18.9987C17.6723 19.2724 17.6723 19.7163 17.946 19.9901L18.6311 20.6751C17.8857 21.4205 17.8966 22.6357 18.6636 23.3674C19.3971 24.0672 20.5696 24.0541 21.2882 23.3391C21.7357 22.8939 21.9118 22.28 21.8176 21.7016C22.396 21.7958 23.0099 21.6197 23.4551 21.1722C24.1701 20.4535 24.1831 19.2811 23.4834 18.5476Z" fill="#95999D"/>
<path d="M2.18231 21.7015C2.08812 22.28 2.26424 22.8939 2.71169 23.3391C3.43035 24.0541 4.60282 24.0671 5.33635 23.3673C6.10333 22.6356 6.11416 21.4205 5.36882 20.6751L6.05392 19.99C6.32769 19.7163 6.32769 19.2724 6.05392 18.9987L4.88522 17.83C4.61145 17.5562 4.16761 17.5562 3.89388 17.83L3.20878 18.5151C2.46341 17.7697 1.24824 17.7805 0.516549 18.5475C-0.183255 19.281 -0.170235 20.4535 0.544824 21.1722C0.99 21.6196 1.60388 21.7957 2.18231 21.7015Z" fill="#95999D"/>
</g>
<defs>
<clipPath id="clip0">
<path d="M0 5C0 2.23858 2.23858 0 5 0H24V24H5C2.23858 24 0 21.7614 0 19V5Z" fill="white"/>
</clipPath>
</defs>
</svg>
