<svg width="50" height="50" viewBox="0 0 50 50" fill="none" xmlns="http://www.w3.org/2000/svg">
<path d="M25 50C38.8071 50 50 38.8071 50 25C50 11.1929 38.8071 0 25 0C11.1929 0 0 11.1929 0 25C0 38.8071 11.1929 50 25 50Z" fill="#E6DDFF"/>
<path d="M50.0001 25C50.0001 24.0616 49.9466 23.1358 49.8459 22.2243L37.9596 10.338L9.79529 32.5704L17.0481 39.861L14.5373 42.7826L21.5111 49.7564C22.6514 49.9157 23.8158 50 25.0001 50C38.8072 50 50.0001 38.8071 50.0001 25Z" fill="#E6DDFF"/>
<path d="M25.7417 4.99805H24.2584C15.0625 4.99805 7.60779 12.4527 7.60779 21.6486V28.0192C7.60779 31.2398 10.2186 33.8507 13.4392 33.8507H14.5373V42.7826H18.9481V37.4176H22.7613V42.7826H27.2388V37.4176H31.052V42.7826H35.4629V33.8507H36.5609C39.7815 33.8507 42.3924 31.2398 42.3924 28.0192V21.6486C42.3923 12.4527 34.9375 4.99805 25.7417 4.99805Z" fill="#784AF8"/>
<path d="M42.3926 21.6484V28.0195C42.3926 31.2402 39.7812 33.8506 36.5605 33.8506H35.4629V42.7822H31.0518V37.418H27.2383V42.7822H25V4.99805H25.7412C34.9375 4.99805 42.3926 12.4531 42.3926 21.6484Z" fill="#784AF8"/>
<path d="M23.7231 25.3953L21.444 28.3703C20.6332 29.4286 21.3878 30.9572 22.7209 30.9572H27.2791C28.6123 30.9572 29.3668 29.4286 28.5561 28.3703L26.277 25.3953C25.6331 24.5549 24.3669 24.5549 23.7231 25.3953Z" fill="#E6DDFF"/>
<path d="M18.7574 22.8163H17.7775C15.6487 22.8163 13.9069 21.0745 13.9069 18.9457V17.9657C13.9069 15.8369 15.6487 14.0951 17.7775 14.0951H18.7574C20.8863 14.0951 22.6281 15.8369 22.6281 17.9657V18.9457C22.6281 21.0745 20.8864 22.8163 18.7574 22.8163Z" fill="#E6DDFF"/>
<path d="M32.2223 22.8163H31.2423C29.1135 22.8163 27.3717 21.0745 27.3717 18.9457V17.9657C27.3717 15.8369 29.1135 14.0951 31.2423 14.0951H32.2223C34.3511 14.0951 36.0929 15.8369 36.0929 17.9657V18.9457C36.0929 21.0745 34.3511 22.8163 32.2223 22.8163Z" fill="#E6DDFF"/>
<path d="M28.5559 28.3703L26.2768 25.3953C25.9549 24.9751 25.4774 24.765 24.9999 24.765V30.9572H27.279C28.6122 30.9572 29.3667 29.4286 28.5559 28.3703Z" fill="#E6DDFF"/>
</svg>
