<svg width="30" height="30" viewBox="0 0 30 30" fill="none" xmlns="http://www.w3.org/2000/svg">
<g clip-path="url(#clip0)">
<path d="M29.9571 11.5581C29.8537 11.2398 29.5787 11.0079 29.2476 10.9599L19.9475 9.60835L15.7883 1.181C15.6402 0.880945 15.3347 0.691101 15.0001 0.691101C14.6656 0.691101 14.3601 0.880945 14.212 1.181L10.0526 9.6083L0.752634 10.9599C0.421638 11.0079 0.146483 11.2398 0.0431819 11.5579C-0.0602358 11.8762 0.026014 12.2255 0.265545 12.4589L6.99491 19.0188L5.40655 28.2814C5.35001 28.6112 5.48559 28.9444 5.75624 29.1411C6.02688 29.3377 6.38559 29.3637 6.68184 29.2079L15.0001 24.8346L23.3181 29.2079C23.4467 29.2755 23.5871 29.3088 23.727 29.3088C23.9093 29.3088 24.0907 29.2523 24.2437 29.1411C24.5143 28.9444 24.6499 28.6111 24.5934 28.2814L23.0046 19.0188L29.7346 12.4589C29.9742 12.2254 30.0605 11.8762 29.9571 11.5581Z" fill="#BFBEBE"/>
<path d="M29.9569 11.5581C29.8536 11.2398 29.5785 11.0079 29.2475 10.9599L19.9474 9.60835L15.7881 1.181C15.6401 0.880945 15.3346 0.691101 15 0.691101V24.8347L23.318 29.2079C23.4466 29.2756 23.587 29.3089 23.727 29.3089C23.9092 29.3089 24.0906 29.2523 24.2436 29.1411C24.5143 28.9444 24.6499 28.6112 24.5933 28.2815L23.0044 19.0188L29.7345 12.4589C29.9741 12.2254 30.0604 11.8762 29.9569 11.5581Z" fill="#A5A5A5"/>
</g>
<defs>
<clipPath id="clip0">
<rect width="30" height="30" fill="white"/>
</clipPath>
</defs>
</svg>
