<svg width="50" height="50" viewBox="0 0 50 50" fill="none" xmlns="http://www.w3.org/2000/svg">
<path d="M25 50C38.8071 50 50 38.8071 50 25C50 11.1929 38.8071 0 25 0C11.1929 0 0 11.1929 0 25C0 38.8071 11.1929 50 25 50Z" fill="#E6DDFF"/>
<path d="M25.943 14.5125L19.1149 7.67754L10.9812 15.8113L19.0549 23.8819L16.0382 27.9409L12.2048 24.1075L10.2936 27.2331L8.39739 27.9149L11.7687 31.2862L5.38684 36.4837L17.8697 48.9665C20.1295 49.6378 22.5223 50 25 50C38.8072 50 50 38.8071 50 25C50 22.2502 49.5547 19.6046 48.7346 17.1299L39.1506 7.5459L25.943 14.5125Z" fill="#E6DDFF"/>
<path d="M44.6201 36.4831L39.7949 41.3083L32.6514 34.1648L37.4766 29.3396L44.6201 36.4831Z" fill="#784AF8"/>
<path d="M32.635 34.1653L35.0478 31.7525L42.1917 38.8965L39.779 41.3092L32.635 34.1653Z" fill="#784AF8"/>
<path d="M10.8494 7.5459L19.1148 7.67754L37.5681 30.0668L33.3703 34.2646L10.9811 15.8113L10.8494 7.5459Z" fill="#DAEAEC"/>
<path d="M10.9812 15.812L30.2275 31.6755L32.9165 33.8914L33.3708 34.2656L35.4695 32.1668L10.8496 7.54691L10.9812 15.812Z" fill="#CEDFE2"/>
<path d="M41.6085 27.915L31.226 38.2976L27.4192 34.4908L37.8017 24.1082L41.6085 27.915Z" fill="#784AF8"/>
<path d="M27.4043 34.4912L32.5956 29.2998L36.4026 33.1068L31.2113 38.2981L27.4043 34.4912Z" fill="#784AF8"/>
<path d="M12.5339 29.335L17.3591 34.1602L10.2156 41.3037L5.39041 36.4785L12.5339 29.335Z" fill="#784AF8"/>
<path d="M7.79517 38.8939L14.9391 31.75L17.3519 34.1628L10.2079 41.3067L7.79517 38.8939Z" fill="#784AF8"/>
<path d="M39.1505 7.5459L30.8852 7.67754L12.4319 30.0668L16.6297 34.2646L39.0189 15.8113L39.1505 7.5459Z" fill="white"/>
<path d="M39.0189 15.812L19.7725 31.6755L17.0835 33.8914L16.6292 34.2656L14.5305 32.1668L39.1505 7.54691L39.0189 15.812Z" fill="#F1F4F6"/>
<path d="M12.2069 24.1036L22.5895 34.4861L18.7826 38.2929L8.40009 27.9104L12.2069 24.1036Z" fill="#784AF8"/>
<path d="M13.5847 33.1052L17.3917 29.2982L22.583 34.4896L18.7761 38.2965L13.5847 33.1052Z" fill="#784AF8"/>
</svg>
