<svg width="24" height="24" viewBox="0 0 24 24" fill="none" xmlns="http://www.w3.org/2000/svg">
<path d="M23.4782 1.04348V4.69566H16.1739H7.82608H0.521729V1.04348C0.521729 0.756526 0.756511 0.521744 1.04347 0.521744H22.9565C23.2435 0.521744 23.4782 0.756526 23.4782 1.04348Z" fill="#68717A"/>
<path d="M7.82607 4.69565H0.521729V10.9565H7.82607V4.69565Z" fill="white"/>
<path d="M22.9565 0H1.04348C0.468 0 0 0.468 0 1.04348V22.9565C0 23.532 0.468 24 1.04348 24H22.9565C23.532 24 24 23.532 24 22.9565V1.04348C24 0.468 23.532 0 22.9565 0ZM8.34783 16.6957V11.4783H15.6522V16.6957H8.34783ZM15.6522 17.7391V22.9565H8.34783V17.7391H15.6522ZM15.6522 5.21739V10.4348H8.34783V5.21739H15.6522ZM22.9565 5.21739V10.4348H16.6957V5.21739H22.9565ZM7.30435 10.4348H1.04348V5.21739H7.30435V10.4348ZM1.04348 11.4783H7.30435V16.6957H1.04348V11.4783ZM16.6957 11.4783H22.9565V16.6957H16.6957V11.4783ZM22.9565 1.04348V4.17391H1.04348V1.04348H22.9565ZM1.04348 17.7391H7.30435V22.9565H1.04348V17.7391ZM16.6957 22.9565V17.7391H22.9565V22.9565H16.6957Z" fill="#68717A"/>
</svg>
