<svg width="50" height="50" viewBox="0 0 50 50" fill="none" xmlns="http://www.w3.org/2000/svg">
<path d="M24.9998 0L9.33594 25L24.9998 50C38.8069 50 49.9998 38.8071 49.9998 25C49.9998 11.1929 38.8069 0 24.9998 0Z" fill="#E6DDFF"/>
<path d="M0 25C0 38.8071 11.1929 50 25 50V0C11.1929 0 0 11.1929 0 25Z" fill="#E6DDFF"/>
<path d="M25 5.85938L18.5754 16.1133L25 26.3672C30.6631 26.3672 35.254 21.7764 35.254 16.1133C35.254 10.4502 30.6631 5.85938 25 5.85938Z" fill="#784AF8"/>
<path d="M14.7461 16.1133C14.7461 21.7764 19.3369 26.3672 25 26.3672V5.85938C19.3369 5.85938 14.7461 10.4502 14.7461 16.1133Z" fill="#784AF8"/>
<path d="M41.4696 32.7581C39.5231 30.5584 36.7235 29.2969 33.7891 29.2969H25L19.1406 36.7188L25 44.1406C31.8674 44.1406 38.2457 40.4287 41.6459 34.4533L42.1641 33.5427L41.4696 32.7581Z" fill="#784AF8"/>
<path d="M16.2111 29.2969C13.2766 29.2969 10.4771 30.5584 8.53052 32.7581L7.83618 33.5428L8.35435 34.4534C11.7544 40.4287 18.1328 44.1406 25.0001 44.1406V29.2969H16.2111Z" fill="#6241EA"/>
</svg>
